<?xml version="1.0" encoding="UTF-8"?>
<svg id="Layer_2" xmlns="http://www.w3.org/2000/svg" viewBox="0 0 1778.29 1852.09">
  <defs>
    <style>
      .cls-1 {
        fill: #37b34a;
      }

      .cls-1, .cls-2, .cls-3, .cls-4, .cls-5 {
        fill-rule: evenodd;
      }

      .cls-2 {
        fill: #d01c57;
      }

      .cls-3 {
        fill: #94191c;
      }

      .cls-4 {
        fill: #ec1c24;
      }

      .cls-5 {
        fill: #275ba8;
      }
    </style>
  </defs>
  <g id="Layer_1-2" data-name="Layer_1">
    <g>
      <path class="cls-4" d="M299.87,1632.56L171.28,510.2c-7.45-58.23-15.08-97.11,93.04-87.48l171.95,13.72v85.99c-10.53,13.97-16.78,31.35-16.78,50.19,0,46.07,37.35,83.42,83.43,83.42s83.43-37.35,83.43-83.42c0-34.47-20.91-64.06-50.74-76.77v24.99c17.15,10.85,28.54,29.99,28.54,51.78,0,33.81-27.42,61.23-61.23,61.23s-61.24-27.42-61.24-61.23c0-15.19,5.52-29.07,14.67-39.76v-94.82l.26.02-.26-2.41v-17.33h-1.35c-.33-6.16-.5-12.39-.5-18.64,0-192.02,155.67-347.68,347.69-347.68s347.7,155.66,347.7,347.68c0,27.46-3.2,54.17-9.22,79.8h-2.14v5.81h-.53v7.1l.53.05v37.37l-.53-.36v21.71c11.1,11.02,17.96,26.28,17.96,43.14,0,33.57-27.21,60.78-60.77,60.78s-60.78-27.2-60.78-60.78c0-17.18,7.13-32.69,18.6-43.74v-21.52c-21.37,13.86-35.52,37.9-35.52,65.26,0,42.92,34.79,77.69,77.7,77.69s77.7-34.78,77.7-77.69c0-14.96-4.24-28.92-11.56-40.78v-59.36c129.98,9.04,162.85,23.38,163.25,100.87,557.87-103.74,673.55,898.97-66.12,764.31l-12.31,139.9c-17.67,200.88,19.4,166.73-175,206.76l-496.96,102.34c-285.38,58.75-248.55,91.9-274.33-175.76h0ZM1317.48,688.66h0l-.99.3c-1.97.6-3.95,1.22-5.91,1.86l-.97.32-.99.33c-1.85.62-3.69,1.25-5.53,1.89l-.35.13-.98.35-.96.35c-1.35.49-2.69.99-4.03,1.49-1.33.5-2.67,1.02-4,1.55l-2.62,1.04c-1.63.66-3.26,1.34-4.89,2.03l-2.06.88c-1.86.81-3.74,1.64-5.6,2.48l-1.19.55c-2.07.96-4.13,1.93-6.18,2.93l-.77.38c-2.19,1.08-4.4,2.19-6.59,3.33l-.17.09c-2.33,1.2-4.64,2.45-6.95,3.72-11.04,6.11-21.56,12.79-31.56,19.97l-.45-.83c-107.77,59.56-293.54,162.75-455.66,251.83l-169.66,93.78c-8.51,3.77-16.93,7.91-25.23,12.5-5.57,3.08-11.02,6.31-16.36,9.7-10.16,6.64-19.45,13.23-27.72,19.76-1.22.97-2.43,1.95-3.64,2.93l-.22.18c-.83.68-1.62,1.38-2.44,2.06-.96.8-1.91,1.59-2.85,2.4-.8.7-1.59,1.4-2.38,2.09-.91.8-1.83,1.59-2.73,2.41-.83.75-1.65,1.5-2.46,2.25-.83.77-1.68,1.54-2.51,2.32-.93.87-1.85,1.75-2.75,2.64-.69.66-1.38,1.31-2.06,1.98-.95.94-1.88,1.88-2.82,2.83-.64.64-1.3,1.3-1.93,1.94-.95.99-1.9,1.98-2.85,2.97l-1.79,1.88c-.91.97-1.81,1.97-2.71,2.95l-1.81,2c-.94,1.04-1.86,2.09-2.78,3.14l-1.58,1.83c-.94,1.08-1.85,2.17-2.76,3.26l-1.52,1.82c-.95,1.15-1.86,2.3-2.79,3.45l-1.34,1.69c-.92,1.17-1.82,2.34-2.72,3.52l-1.34,1.75c-.89,1.2-1.77,2.4-2.66,3.6l-1.23,1.69c-.92,1.27-1.82,2.55-2.72,3.84l-1.01,1.45c-.93,1.35-1.85,2.71-2.76,4.08l-.89,1.33c-.91,1.38-1.81,2.76-2.68,4.15l-.9,1.41c-.87,1.4-1.74,2.8-2.59,4.21l-.84,1.37c-.84,1.41-1.67,2.81-2.49,4.24l-.83,1.45c-.83,1.45-1.64,2.9-2.45,4.37l-.66,1.22c-.82,1.5-1.63,3-2.42,4.51l-.68,1.29c-.8,1.55-1.6,3.12-2.37,4.68l-.46.93c-.82,1.66-1.63,3.33-2.42,5l-.37.79c-.8,1.72-1.6,3.45-2.37,5.18l-.28.62c-.79,1.78-1.57,3.58-2.33,5.38l-.22.54c-.76,1.82-1.51,3.64-2.24,5.47l-.19.5c-29.36,74.19-30.36,159.01,2.16,236.57l-.05-.07c4.37,10.45,9.35,20.76,14.96,30.91,7.31,13.24,15.46,25.72,24.31,37.45,1.42,1.89,2.86,3.76,4.32,5.6l.1.13c1.47,1.86,2.94,3.68,4.45,5.49l.03.04c13.67,16.5,28.82,31.34,45.15,44.41l.08.06c3.6,2.88,7.26,5.68,10.97,8.38l.18.13c1.83,1.34,3.68,2.65,5.53,3.94l.08.06c14.97,10.42,30.78,19.46,47.19,27.08l1.05.49c1.74.8,3.46,1.57,5.2,2.33l1.24.54c1.72.76,3.45,1.48,5.18,2.18l1.36.56c1.72.7,3.45,1.39,5.18,2.05l1.25.47c1.8.68,3.6,1.36,5.42,2.01l.96.34c1.89.68,3.8,1.34,5.71,1.98l.57.19c10.32,3.44,20.81,6.32,31.42,8.68l1.54.35c1.57.34,3.14.65,4.71.96l2.42.49c1.5.28,3,.56,4.5.83l2.48.43c1.53.26,3.04.5,4.57.74l2.51.37c1.47.21,2.93.41,4.4.61l2.9.37c1.4.16,2.78.33,4.18.49l2.85.29c1.47.14,2.95.29,4.42.41l2.49.2c1.54.11,3.09.23,4.64.33l2.4.13c1.59.09,3.19.17,4.79.24.65.03,1.3.04,1.96.06,3.46.11,6.94.17,10.41.17h1.56c1.45,0,2.9-.04,4.35-.06,1-.02,2-.04,3-.06,1.23-.04,2.46-.08,3.69-.14,1.23-.05,2.47-.1,3.7-.17,1.15-.05,2.31-.14,3.47-.21,1.27-.08,2.53-.16,3.8-.26,1.17-.09,2.34-.19,3.51-.29,1.3-.11,2.59-.23,3.9-.36l3.29-.35c1.32-.15,2.65-.3,3.97-.47,1.15-.14,2.3-.28,3.45-.44,1.26-.16,2.53-.36,3.79-.54,1.17-.17,2.33-.34,3.49-.52,1.31-.21,2.61-.43,3.91-.66,1.09-.18,2.18-.37,3.27-.57,1.42-.26,2.85-.54,4.28-.83.99-.19,1.98-.38,2.98-.59,1.75-.36,3.48-.76,5.23-1.14.65-.16,1.31-.28,1.97-.44,2.4-.56,4.79-1.15,7.2-1.76l1.9-.52c1.78-.48,3.56-.95,5.34-1.45.85-.25,1.68-.51,2.52-.74,1.55-.46,3.11-.91,4.65-1.39.97-.3,1.94-.62,2.9-.93,1.39-.45,2.8-.9,4.2-1.37,1.04-.36,2.09-.73,3.14-1.09,1.32-.46,2.66-.93,3.98-1.42l3.19-1.18c1.32-.49,2.62-.99,3.92-1.5l3.11-1.23c1.34-.54,2.68-1.09,4.01-1.65l3.06-1.29c1.39-.61,2.78-1.22,4.17-1.85l2.73-1.22c1.53-.71,3.06-1.44,4.59-2.18l2.37-1.14c1.77-.86,3.53-1.76,5.29-2.66l1.59-.81c2.32-1.21,4.64-2.44,6.94-3.72,76.2-42.11,127.99-111.24,150.05-188.85.5-2.54,1-5.04,1.53-7.51l.44-2.03c.38-1.74.76-3.46,1.15-5.17l.68-2.82c.34-1.42.68-2.85,1.03-4.26l.8-3.13c.33-1.29.67-2.56,1.01-3.83l.82-3,1.15-4.02.81-2.74c.39-1.35.81-2.68,1.22-4.01l.85-2.7c.41-1.32.84-2.6,1.27-3.9.29-.85.56-1.7.86-2.54.49-1.43.99-2.84,1.5-4.25.26-.72.5-1.42.76-2.13.74-2.02,1.5-4.02,2.28-6.01.28-.71.56-1.4.85-2.09.52-1.31,1.05-2.62,1.58-3.9.37-.88.74-1.76,1.12-2.62.45-1.06.91-2.12,1.36-3.17.42-.91.83-1.82,1.23-2.72.48-1.03.95-2.06,1.42-3.08l1.18-2.45c.5-1.05,1.01-2.08,1.52-3.11l1.28-2.53c.49-.95,1-1.89,1.49-2.83.44-.84.88-1.66,1.33-2.49.53-.98,1.06-1.93,1.61-2.89.43-.76.85-1.52,1.29-2.28.54-.93,1.08-1.85,1.63-2.77.47-.78.94-1.57,1.41-2.35.59-.94,1.17-1.86,1.75-2.77.62-.98,1.25-1.96,1.88-2.92.82-1.24,1.64-2.47,2.47-3.68.51-.73,1.02-1.44,1.53-2.17.56-.79,1.12-1.59,1.69-2.37.57-.78,1.16-1.54,1.74-2.32.51-.68,1.03-1.37,1.55-2.05.62-.8,1.24-1.58,1.87-2.36l1.49-1.84c.65-.81,1.31-1.59,1.98-2.37l1.5-1.75c.65-.74,1.29-1.48,1.95-2.21l1.67-1.83c.65-.69,1.29-1.39,1.95-2.08.52-.53,1.03-1.05,1.55-1.57.73-.75,1.46-1.49,2.2-2.21l1.19-1.15c3.21-3.09,6.49-6.01,9.86-8.78h.03c.95-.79,1.92-1.55,2.89-2.31l1.09-.85c.9-.69,1.81-1.35,2.71-2.01l1.3-.96c.91-.64,1.83-1.28,2.75-1.9l1.32-.9c.91-.61,1.83-1.2,2.75-1.79l1.4-.88c.95-.59,1.92-1.18,2.89-1.75l1.1-.63c1.07-.62,2.13-1.23,3.22-1.82l.71-.38c6.53-3.54,13.31-6.55,20.31-9.07l.67-.25c1.23-.44,2.48-.85,3.72-1.26l.87-.29c1.22-.38,2.45-.76,3.69-1.12l1.01-.29c1.24-.35,2.48-.68,3.74-1l.84-.22c1.31-.32,2.63-.64,3.96-.95l.53-.11c9.12-2.01,18.54-3.25,28.27-3.72l.38-.02c1.57-.07,3.14-.12,4.72-.16h.29c1.57-.04,3.16-.05,4.76-.04h.4c1.58.02,3.16.05,4.76.1h.36c11.81.41,24,1.89,36.54,4.43l.44.08c1.73.36,3.48.74,5.23,1.13l.17.04c1.78.4,3.57.83,5.37,1.28l.17.05c1.82.45,3.64.93,5.46,1.42h0c13.85,3.75,28.08,8.73,42.65,14.97,80.08,26.41,173.49,22.57,250.76-25.46,267.83-166.45,49.42-682.71-241.87-575.31h0ZM1053.02,485.28h-1.92c9.23-26.84,14.25-55.62,14.25-85.6,0-145.33-117.82-263.13-263.15-263.13s-263.14,117.81-263.14,263.13c0,15.44,1.34,30.56,3.89,45.26l510.08,40.67v-.33Z"/>
      <path class="cls-3" d="M354.25,1852.09c-7.7-6.05-29.05-13.56-29.61-71.5-.2-20.67-4.31-41.3-5.98-61.91-2.31-28.08-4.57-56.13-7.24-83.81L182.87,512.77c-7.89-61.59-10.46-68.27,27.45-89.95l-140.84,39.91C-1.19,493.06-.3,489.67.06,588.78l3.38,919.42c.49,132.29-28.35,123.09,79.14,188.12l271.68,155.76Z"/>
      <path class="cls-3" d="M620.44,0c52.56,0,102.39,11.69,147.05,32.57-41.24,4.09-80.35,15.37-116.07,32.59-14.08,5.66-27.68,12.22-40.77,19.6-140.79,5.14-253.36,120.89-253.36,262.94,0,21.32,2.54,42.04,7.33,61.89l-87.57-6.98c-2.83-17.89-4.31-36.23-4.31-54.91C272.75,155.67,428.41,0,620.44,0Z"/>
      <path class="cls-3" d="M646.61,1219.97h0c25.05-13.85,56.88-4.68,70.73,20.37l25.93,46.91,46.9-25.93c25.05-13.86,56.88-4.69,70.73,20.37h0c13.85,25.06,4.68,56.87-20.37,70.73l-46.91,25.93,25.93,46.91c13.85,25.05,4.68,56.88-20.38,70.73h0c-25.06,13.85-56.87,4.68-70.72-20.37l-25.93-46.91-46.91,25.92c-25.06,13.85-56.88,4.69-70.72-20.37h0c-13.85-25.05-4.68-56.88,20.37-70.73l46.91-25.93-25.93-46.91c-13.85-25.06-4.69-56.87,20.37-70.72Z"/>
      <path class="cls-5" d="M1278.1,847.04c30.97-17.12,69.95-5.89,87.06,25.07,17.12,30.97,5.89,69.95-25.08,87.07-30.96,17.12-69.94,5.89-87.05-25.08-17.12-30.96-5.89-69.95,25.07-87.06Z"/>
      <path class="cls-1" d="M1478.43,934.51c30.64-16.94,69.22-5.83,86.16,24.82,16.93,30.65,5.82,69.23-24.82,86.16-30.64,16.94-69.22,5.83-86.16-24.82-16.94-30.65-5.83-69.23,24.81-86.16Z"/>
      <path class="cls-4" d="M1216.03,1046.95c30.97-17.11,69.95-5.88,87.07,25.08,17.12,30.96,5.89,69.95-25.09,87.07-30.96,17.11-69.94,5.88-87.05-25.08-17.12-30.97-5.89-69.95,25.08-87.07Z"/>
      <path class="cls-2" d="M1410.49,1104.02c30.96-17.12,69.94-5.89,87.05,25.08,17.12,30.97,5.89,69.95-25.07,87.06-30.97,17.12-69.96,5.89-87.07-25.08-17.12-30.97-5.89-69.94,25.08-87.06Z"/>
    </g>
  </g>
</svg>